<svg xmlns="http://www.w3.org/2000/svg" xmlns:xlink="http://www.w3.org/1999/xlink" width="299" zoomAndPan="magnify" viewBox="0 0 224.25 87.749997" height="117" preserveAspectRatio="xMidYMid meet" version="1.0"><defs><g/><clipPath id="d5aa3e8b1c"><path d="M 0 0.0234375 L 204 0.0234375 L 204 87.480469 L 0 87.480469 Z M 0 0.0234375 " clip-rule="nonzero"/></clipPath><clipPath id="b33dd52bc6"><path d="M 61 46 L 223.503906 46 L 223.503906 83 L 61 83 Z M 61 46 " clip-rule="nonzero"/></clipPath></defs><g clip-path="url(#d5aa3e8b1c)"><path stroke-linecap="butt" transform="matrix(0.589026, 0, 0, 0.589026, 18.263317, 14.057361)" fill="none" stroke-linejoin="miter" d="M 26.915416 87.308612 C 24.428523 87.308612 22.392586 86.817865 20.814238 85.836371 C 19.23589 84.854878 18.088604 83.647906 17.365747 82.208824 C 16.649522 80.769742 16.298041 79.343923 16.298041 77.918104 C 16.298041 74.993518 17.120373 72.685682 18.765039 70.9747 C 20.416336 69.283612 22.525221 68.07664 25.111589 67.347152 C 27.70459 66.637558 30.403697 66.279446 33.222176 66.279446 C 34.177143 66.279446 35.238217 66.352395 36.392135 66.491661 C 36.869619 64.528673 37.287417 62.406525 37.638898 60.111951 C 37.99701 57.810746 38.348491 55.396802 38.686709 52.856856 C 37.347102 54.388782 35.742227 55.708493 33.872084 56.822621 C 32.015204 57.916854 29.813475 58.467286 27.266896 58.467286 C 25.356963 58.467286 23.440397 58.122437 21.497305 57.432739 C 19.560844 56.729777 17.783545 55.642176 16.172038 54.156672 C 14.573795 52.671168 13.280611 50.774498 12.299117 48.460029 C 11.317623 46.138929 10.826877 43.346977 10.826877 40.084174 C 10.826877 37.829391 11.138567 35.548081 11.755317 33.233613 C 12.385329 30.912513 13.254084 28.624572 14.348317 26.383052 C 11.722158 25.381663 9.314846 24.088479 7.133012 22.510131 C 4.957809 20.925151 3.226932 19.088166 1.927116 17.01244 C 0.640563 14.930081 -0.00271302 12.648772 -0.00271302 10.161879 C -0.00271302 8.537109 0.24266 7.124554 0.720144 5.937477 C 1.197627 4.730505 1.761323 3.795433 2.397968 3.132261 C 3.054507 2.455827 3.591676 2.117609 4.009474 2.117609 C 4.599697 2.117609 4.891492 2.568566 4.891492 3.483742 C 4.891492 6.017057 5.402134 8.444265 6.43005 10.771996 C 7.457966 13.086465 8.890416 15.188718 10.720769 17.078757 C 12.571017 18.975427 14.666639 20.540512 17.014266 21.793906 C 19.408315 18.192885 22.25332 14.930081 25.549282 11.998864 C 28.851876 9.054382 32.366685 6.726651 36.093708 5.009037 C 39.833995 3.278159 43.541124 2.416036 47.221725 2.416036 C 50.431475 2.416036 53.057634 3.291423 55.086938 5.042195 C 57.122875 6.779704 58.137527 9.034487 58.137527 11.806544 C 58.137527 13.723109 57.467724 15.686097 56.121486 17.695506 C 54.781879 19.704916 52.818892 21.568427 50.232523 23.299305 C 47.652786 25.016919 44.502722 26.402947 40.788962 27.450758 C 37.088465 28.505201 32.870695 29.029106 28.142283 29.029106 C 27.366372 29.029106 26.597093 29.009211 25.827814 28.962789 C 25.065167 28.916367 24.30252 28.843418 23.533241 28.750574 C 22.817016 31.237467 22.465535 33.890153 22.465535 36.702 C 22.465535 39.964803 22.956282 42.50475 23.937776 44.328471 C 24.91927 46.138929 26.099715 47.392323 27.492375 48.095285 C 28.885035 48.784983 30.198114 49.129832 31.431613 49.129832 C 33.102805 49.129832 34.535255 48.672244 35.728964 47.763699 C 36.929304 46.848523 37.910798 45.694604 38.673445 44.288681 C 39.442724 42.876126 39.999788 41.430412 40.338006 39.944908 C 40.384428 39.560269 40.464008 39.195524 40.583379 38.844043 C 40.709382 38.479299 40.868543 38.127818 41.054231 37.789601 C 41.147075 37.603913 41.253182 37.43812 41.372553 37.298854 C 41.498556 37.146324 41.584768 37.026954 41.63119 36.93411 C 42.347415 36.018933 43.229433 35.302708 44.277244 34.778802 C 45.331686 34.248265 46.346339 33.929943 47.327832 33.810572 C 48.309326 33.68457 49.071973 33.790677 49.622406 34.128894 C 50.172838 34.467112 50.331999 35.037439 50.093257 35.846508 C 49.615774 37.623808 49.171449 39.752588 48.766914 42.239481 C 48.355748 44.726374 47.957845 47.41885 47.573206 50.316909 C 47.195198 53.201705 46.750873 56.185976 46.220336 59.25646 C 45.696431 62.313681 45.026628 65.284689 44.210927 68.156221 C 47.51352 69.011712 50.922222 70.006469 54.443662 71.153756 C 57.958471 72.307674 61.36054 73.302431 64.656502 74.131396 C 67.959096 74.973623 70.930104 75.391421 73.556263 75.391421 C 74.809657 75.391421 76.049787 75.258787 77.289918 74.986887 C 78.53668 74.734882 79.591123 74.30382 80.446614 73.713598 C 81.308737 73.116743 81.739798 72.360728 81.739798 71.452183 C 81.739798 70.828802 81.932118 70.556901 82.316757 70.62985 C 82.701397 70.696167 83.086036 71.147124 83.457412 71.976088 C 83.842052 72.818316 84.034371 74.078342 84.034371 75.762797 C 84.034371 77.480411 83.497203 79.005706 82.422865 80.351944 C 81.348527 81.698182 79.935972 82.732729 78.185199 83.468849 C 76.441059 84.218233 74.544388 84.589609 72.488557 84.589609 C 69.90882 84.589609 67.348978 84.171811 64.815663 83.329583 C 62.275717 82.487356 59.782192 81.446176 57.315194 80.192782 C 54.848197 78.952652 52.394462 77.679363 49.953991 76.359652 C 47.51352 75.046572 45.092945 73.912549 42.698896 72.957582 C 41.743929 75.676585 40.543589 78.117056 39.111138 80.265731 C 37.672056 82.42767 35.961074 84.138653 33.978191 85.398678 C 31.988677 86.671967 29.634419 87.308612 26.915416 87.308612 Z M 23.692402 75.623531 C 23.692402 76.333125 23.951039 76.943242 24.474945 77.440621 C 25.005482 77.944631 25.8875 78.196636 27.120999 78.196636 C 28.991142 78.196636 30.556227 77.533465 31.822884 76.213754 C 33.096173 74.907306 34.163879 73.130007 35.026002 70.875224 C 34.734207 70.828802 34.455675 70.802275 34.183775 70.802275 C 33.925138 70.802275 33.659869 70.802275 33.381337 70.802275 C 31.696882 70.802275 30.111902 70.968068 28.63303 71.293022 C 27.147526 71.631239 25.947185 72.148513 25.03864 72.83158 C 24.136727 73.534541 23.692402 74.462981 23.692402 75.623531 Z M 25.058536 24.300694 C 26.000239 24.43996 26.975101 24.506277 27.983122 24.506277 C 32.724797 24.506277 36.969095 23.902791 40.722645 22.689187 C 44.482827 21.46232 47.447203 19.857445 49.622406 17.867931 C 51.80424 15.885048 52.898473 13.743004 52.898473 11.455063 C 52.898473 10.161879 52.487306 9.041119 51.671605 8.106047 C 50.855904 7.170976 49.443349 6.706756 47.43394 6.706756 C 44.462932 6.706756 41.531714 7.462771 38.633655 8.96817 C 35.748859 10.473569 33.1227 12.555928 30.748547 15.221877 C 28.381024 17.874563 26.484354 20.898624 25.058536 24.300694 Z M 65.445676 67.002303 C 62.242558 67.002303 59.589872 65.815226 57.487619 63.441072 C 55.385365 61.07355 54.337555 57.830642 54.337555 53.718979 C 54.337555 51.278508 54.715562 48.864564 55.471578 46.483778 C 56.247488 44.089729 57.308563 41.888 58.661432 39.878591 C 60.027565 37.869181 61.658967 36.264306 63.549006 35.07723 C 65.445676 33.870258 67.488244 33.273403 69.683342 33.273403 C 71.460641 33.273403 72.919618 33.757518 74.066905 34.739012 C 75.20756 35.720506 76.089578 36.907583 76.712959 38.300243 C 77.52866 37.292222 78.510153 36.529575 79.65744 36.00567 C 80.811358 35.468501 81.912223 35.183337 82.966665 35.163442 C 84.014476 35.136915 84.816914 35.329235 85.367346 35.740401 C 85.917778 36.151567 85.997359 36.788212 85.61272 37.650335 C 85.088814 38.890465 84.604699 40.45555 84.173637 42.345589 C 83.755839 44.242259 83.430885 46.085875 83.212039 47.88307 C 82.999824 49.673633 82.893717 51.066293 82.893717 52.074314 C 82.893717 54.561206 83.158985 56.245662 83.682891 57.134312 C 84.206796 58.022961 84.850072 58.467286 85.61272 58.467286 C 87.144646 58.467286 88.696467 57.12768 90.274815 54.455099 C 91.859794 51.769255 93.77636 47.697382 96.017879 42.239481 C 96.548417 40.992719 97.165166 40.309652 97.874759 40.190281 C 98.604248 40.077542 99.167944 40.369338 99.57911 41.065668 C 99.983645 41.755366 99.977013 42.743491 99.53932 44.030044 C 98.199713 48.095285 96.614734 51.875362 94.791012 55.363644 C 92.980554 58.858557 91.063989 61.663773 89.028052 63.772658 C 86.998748 65.881543 84.903126 66.955881 82.754451 67.002303 C 80.745041 67.048725 79.020795 66.471765 77.588345 65.284689 C 76.149263 64.077717 75.094821 62.472842 74.418386 60.463432 C 73.363943 62.287154 72.097286 63.832343 70.611782 65.105632 C 69.126278 66.37229 67.408664 67.002303 65.445676 67.002303 Z M 64.092806 53.506764 C 64.092806 54.899424 64.344812 56.073237 64.848822 57.028204 C 65.352832 57.989803 65.956318 58.467286 66.672543 58.467286 C 67.720354 58.467286 68.74827 57.916854 69.75629 56.822621 C 70.757679 55.708493 71.639697 54.183199 72.402344 52.246738 C 73.171623 50.310278 73.702161 48.095285 73.993956 45.608392 C 74.272488 42.929179 74.040378 41.092195 73.290994 40.084174 C 72.554874 39.082785 71.739173 38.578775 70.843892 38.578775 C 69.975137 38.578775 69.146173 39.049627 68.350367 39.978067 C 67.567825 40.913138 66.8516 42.133374 66.19506 43.645405 C 65.551784 45.150804 65.041142 46.768942 64.656502 48.499819 C 64.278494 50.210802 64.092806 51.881994 64.092806 53.506764 Z M 105.633865 67.002303 C 102.570013 67.002303 100.049962 65.583116 98.060447 62.744742 C 96.077565 59.893105 95.082808 55.900813 95.082808 50.774498 C 95.082808 48.334027 95.36134 45.283438 95.90514 41.629363 C 96.468836 37.968657 97.370749 34.181948 98.604248 30.255973 L 94.4329 30.255973 C 93.106557 30.255973 92.091904 29.990705 91.402206 29.466799 C 90.705876 28.942894 90.354395 28.418988 90.354395 27.888451 C 90.354395 27.503812 90.48703 27.152331 90.75893 26.820745 C 91.010935 26.482528 91.528209 26.316735 92.297488 26.316735 L 100.04333 26.316735 C 100.335125 25.540824 100.646816 24.791441 100.97177 24.05532 C 101.309987 23.305937 101.648205 22.576448 101.986422 21.860223 C 102.609803 20.567039 103.511717 19.552386 104.705425 18.816266 C 105.905765 18.066882 107.079579 17.589399 108.226866 17.377184 C 109.36752 17.158337 110.262802 17.251181 110.906078 17.655716 C 111.562618 18.066882 111.668725 18.776476 111.237664 19.777865 C 110.76018 20.925151 110.302592 22.052543 109.871531 23.160039 C 109.440469 24.260903 109.029303 25.308714 108.644664 26.316735 L 116.410401 26.316735 C 117.41179 26.316735 118.008644 26.621794 118.194332 27.245175 C 118.393284 27.861924 118.214227 28.485306 117.650532 29.115318 C 117.106731 29.7387 116.165028 30.043758 114.832053 30.043758 C 113.77761 30.043758 112.61706 30.043758 111.343771 30.043758 C 110.083746 30.043758 108.757403 30.070285 107.364743 30.116707 C 106.071558 34.321214 105.262489 38.028343 104.950799 41.244724 C 104.64574 44.44121 104.49321 47.45864 104.49321 50.283751 C 104.49321 53.533291 104.811533 55.708493 105.454809 56.822621 C 106.098085 57.916854 106.761257 58.467286 107.437692 58.467286 C 108.830352 58.467286 110.276065 57.200629 111.781464 54.667314 C 113.286864 52.120736 115.143744 47.975914 117.338841 42.239481 C 117.816325 40.992719 118.413179 40.296389 119.122772 40.157123 C 119.845629 40.017857 120.42922 40.309652 120.860281 41.032509 C 121.291343 41.742103 121.291343 42.743491 120.860281 44.030044 C 119.852261 47.040842 118.864135 49.925638 117.882642 52.684431 C 116.901148 55.429961 115.820178 57.883695 114.639733 60.045634 C 113.472552 62.19431 112.166104 63.892029 110.733654 65.145423 C 109.294572 66.378921 107.596853 67.002303 105.633865 67.002303 Z M 126.669663 67.002303 C 123.17475 67.048725 120.541959 65.828489 118.76466 63.334965 C 117.000624 60.848072 116.072184 57.717902 115.97934 53.944457 C 115.932918 51.782518 116.039025 49.501208 116.29103 47.093896 C 116.56293 44.679952 117.21947 42.292535 118.273913 39.944908 C 118.890662 38.512458 119.819102 37.411593 121.059233 36.648946 C 122.312627 35.879667 123.552757 35.415447 124.792888 35.249654 C 126.03965 35.07723 127.021144 35.189969 127.737369 35.601135 C 128.460226 36.012301 128.606124 36.695368 128.175062 37.650335 C 127.35273 39.5669 126.709453 41.662522 126.225338 43.943832 C 125.747855 46.205246 125.489218 48.34729 125.442796 50.3567 C 125.442796 53.274654 125.794277 55.357012 126.510502 56.610406 C 127.233359 57.850537 128.075587 58.467286 129.030554 58.467286 C 130.715009 58.467286 132.492308 57.140943 134.375715 54.488258 C 136.265754 51.82894 138.387902 47.743804 140.735529 42.239481 C 141.259435 40.992719 141.882816 40.309652 142.592409 40.190281 C 143.315266 40.077542 143.878962 40.369338 144.276865 41.065668 C 144.688031 41.755366 144.681399 42.743491 144.25697 44.030044 C 143.255581 47.087264 142.081767 49.998587 140.735529 52.75738 C 139.395923 55.50291 137.943578 57.943381 136.391756 60.078793 C 134.839935 62.207573 133.241692 63.892029 131.61029 65.145423 C 129.98552 66.378921 128.334223 67.002303 126.669663 67.002303 Z M 122.425366 27.099277 C 122.425366 25.852515 122.783479 24.71186 123.493072 23.683944 C 124.222561 22.656029 125.151001 21.860223 126.298287 21.283264 C 127.452205 20.712936 128.672441 20.447668 129.958994 20.49409 C 131.25881 20.540512 132.286725 20.951678 133.042741 21.720957 C 133.818651 22.483604 134.203291 23.412044 134.203291 24.506277 C 134.203291 26.37642 133.414117 27.861924 131.835769 28.962789 C 130.257421 30.057022 128.440331 30.607454 126.384499 30.607454 C 125.336689 30.607454 124.41488 30.2825 123.619075 29.645856 C 122.823269 29.002579 122.425366 28.15372 122.425366 27.099277 Z M 164.41075 67.002303 C 162.78598 67.002303 161.439742 66.498292 160.365404 65.490272 C 159.291066 64.488883 158.488629 63.235489 157.964723 61.723458 C 157.440818 60.218059 157.175549 58.679501 157.175549 57.101153 C 157.175549 55.416698 157.341342 53.672557 157.666296 51.862099 C 158.004514 50.038377 158.336099 48.340658 158.667685 46.76231 C 159.005902 45.183962 159.198222 43.904041 159.244644 42.922548 C 159.291066 41.941054 159.052324 41.450307 158.528419 41.450307 C 157.812194 41.450307 157.009756 42.014003 156.127738 43.134763 C 155.239089 44.255522 154.363702 45.741026 153.494948 47.584643 C 152.646088 49.42826 151.856914 51.417774 151.134058 53.539922 C 150.417832 55.668703 149.834241 57.751061 149.376653 59.780366 C 148.925697 61.816302 148.693587 63.573706 148.693587 65.052579 C 148.693587 65.583116 148.488003 65.98765 148.083469 66.279446 C 147.685566 66.571241 147.168292 66.717139 146.538279 66.717139 C 145.583313 66.717139 144.522238 66.365658 143.348425 65.649433 C 142.181243 64.926576 141.179854 63.719604 140.337627 62.021885 C 139.495399 60.317535 139.077601 58.049488 139.077601 55.224378 C 139.077601 52.352846 139.19034 49.746582 139.429082 47.412218 C 139.674455 45.064591 140.35089 42.571067 141.458386 39.944908 C 142.121558 38.412982 143.030103 37.272327 144.177389 36.50968 C 145.318044 35.740401 146.465331 35.282813 147.605985 35.143547 C 148.766535 34.991017 149.714871 35.083861 150.444359 35.42871 C 151.193743 35.753664 151.525329 36.257675 151.425853 36.93411 C 151.134058 38.698146 150.643311 40.45555 149.940349 42.206323 C 149.250651 43.943832 148.786431 45.920083 148.554321 48.128443 C 150.94837 43.43319 153.415367 39.838801 155.948682 37.351908 C 158.481997 34.865015 161.141314 33.618252 163.920003 33.618252 C 165.451929 33.618252 166.705323 34.208475 167.686817 35.38892 C 168.66831 36.556102 169.159057 37.975289 169.159057 39.646481 C 169.159057 41.470202 168.946842 43.360241 168.515781 45.323228 C 168.078088 47.286216 167.647026 49.189518 167.215965 51.039766 C 166.784903 52.870119 166.566057 54.554575 166.566057 56.086501 C 166.566057 57.67148 167.070067 58.467286 168.071456 58.467286 C 168.986633 58.467286 169.954863 57.857168 170.982779 56.643565 C 172.010694 55.416698 173.005452 53.904667 173.960418 52.107472 C 174.922017 50.310278 175.790772 48.513083 176.573314 46.729152 C 177.36912 44.925325 177.959342 43.453085 178.343982 42.31243 C 178.775043 41.118721 179.338739 40.422391 180.021805 40.210177 C 180.711504 39.984698 181.295094 40.18365 181.77921 40.807031 C 182.256693 41.42378 182.309747 42.405274 181.931739 43.751512 C 181.639944 44.799323 181.135933 46.271563 180.413076 48.161602 C 179.696851 50.058272 178.814833 52.074314 177.767022 54.229621 C 176.71258 56.378296 175.492344 58.420864 174.099684 60.357325 C 172.713656 62.300417 171.208257 63.892029 169.583487 65.145423 C 167.958717 66.378921 166.234471 67.002303 164.41075 67.002303 Z M 202.019202 67.002303 C 200.394432 67.002303 199.048194 66.498292 197.967224 65.490272 C 196.892887 64.488883 196.097081 63.235489 195.566544 61.723458 C 195.042638 60.218059 194.784001 58.679501 194.784001 57.101153 C 194.784001 55.416698 194.943163 53.672557 195.274748 51.862099 C 195.612966 50.038377 195.944552 48.340658 196.269506 46.76231 C 196.607723 45.183962 196.800043 43.904041 196.846465 42.922548 C 196.892887 41.941054 196.654145 41.450307 196.13024 41.450307 C 195.420646 41.450307 194.618209 42.027266 193.729559 43.167921 C 192.840909 44.315208 191.965523 45.820607 191.1034 47.69075 C 190.247909 49.560894 189.458735 51.576935 188.735878 53.738874 C 188.026285 55.887549 187.442694 57.976539 186.985105 60.005844 C 186.527517 62.04178 186.302039 63.825711 186.302039 65.351006 C 186.302039 66.266182 185.824555 66.803351 184.862957 66.962512 C 183.90799 67.128305 182.780598 66.8763 181.480782 66.213129 C 180.19423 65.543325 179.07347 64.422566 178.118503 62.844218 C 177.156905 61.259238 176.679421 59.150353 176.679421 56.524194 C 176.679421 50.449544 177.196695 44.726374 178.224611 39.367949 C 179.252526 34.002892 180.665082 29.281111 182.462276 25.189343 C 184.259471 21.104207 186.361724 17.901089 188.769037 15.593253 C 191.189612 13.265521 193.789244 12.104971 196.567933 12.104971 C 198.53092 12.104971 200.109268 12.761511 201.296345 14.081222 C 202.503317 15.394301 203.106803 17.164969 203.106803 19.41312 C 203.106803 21.522005 202.377314 23.790052 200.911706 26.210627 C 199.452728 28.61794 197.476478 31.084938 194.989585 33.618252 C 192.502692 36.158199 189.704108 38.698146 186.600466 41.244724 C 186.308671 43.439821 186.162773 45.734395 186.162773 48.128443 C 188.556822 43.43319 191.017188 39.838801 193.557134 37.351908 C 196.090449 34.865015 198.749767 33.618252 201.528455 33.618252 C 203.060381 33.618252 204.313775 34.208475 205.295269 35.38892 C 206.276763 36.556102 206.767509 37.975289 206.767509 39.646481 C 206.767509 41.470202 206.548663 43.360241 206.117601 45.323228 C 205.68654 47.286216 205.255478 49.189518 204.824417 51.039766 C 204.386724 52.870119 204.174509 54.554575 204.174509 56.086501 C 204.174509 57.67148 204.678519 58.467286 205.679908 58.467286 C 206.588453 58.467286 207.563315 57.857168 208.591231 56.643565 C 209.619147 55.416698 210.607272 53.904667 211.568871 52.107472 C 212.523837 50.310278 213.392592 48.513083 214.175134 46.729152 C 214.97094 44.925325 215.561163 43.453085 215.945802 42.31243 C 216.376863 41.118721 216.940559 40.422391 217.630258 40.210177 C 218.319956 39.984698 218.903547 40.18365 219.38103 40.807031 C 219.858514 41.42378 219.911567 42.405274 219.540191 43.751512 C 219.248396 44.799323 218.737754 46.271563 218.014897 48.161602 C 217.305304 50.058272 216.423285 52.074314 215.368843 54.229621 C 214.321032 56.378296 213.100797 58.420864 211.708137 60.357325 C 210.315477 62.300417 208.810077 63.892029 207.185307 65.145423 C 205.560537 66.378921 203.842923 67.002303 202.019202 67.002303 Z M 187.595223 35.130283 C 190.904449 32.404649 193.46429 29.553012 195.274748 26.562108 C 197.091838 23.571205 198.007015 20.9981 198.007015 18.849425 C 198.007015 17.602662 197.675429 16.972649 197.005626 16.972649 C 196.189925 16.972649 195.175273 17.74856 193.974932 19.307013 C 192.781224 20.858834 191.60741 23.000878 190.453492 25.733144 C 189.306205 28.458779 188.35787 31.588948 187.595223 35.130283 Z M 224.414501 67.002303 C 222.265826 67.002303 220.289575 66.465134 218.49238 65.390796 C 216.695186 64.316458 215.256104 62.804427 214.181766 60.867967 C 213.107428 58.931506 212.570259 56.670092 212.570259 54.083723 C 212.570259 51.351457 213.027848 48.745193 213.936393 46.251668 C 214.844937 43.764775 216.104963 41.549783 217.703206 39.613322 C 219.30145 37.676862 221.118539 36.144936 223.154476 35.024176 C 225.18378 33.903416 227.305929 33.33972 229.51429 33.33972 C 230.363149 33.33972 231.046216 33.565199 231.543594 34.022787 C 232.047605 34.480375 232.273083 35.004281 232.226661 35.601135 C 232.180239 36.197989 231.755809 36.708631 230.94674 37.139693 C 228.837855 38.240557 227.140136 39.606691 225.866847 41.244724 C 224.606821 42.869494 223.698276 44.567213 223.154476 46.344512 C 222.604043 48.108548 222.332143 49.799636 222.332143 51.424406 C 222.332143 53.818454 222.67036 55.595754 223.360059 56.749672 C 224.06302 57.896959 224.938407 58.467286 225.992849 58.467286 C 227.286034 58.467286 228.459847 57.751061 229.51429 56.311979 C 230.562101 54.872897 231.304853 53.268022 231.735914 51.490723 C 230.44273 50.641863 229.467868 49.540999 228.811328 48.201392 C 228.168052 46.855154 227.849729 45.462494 227.849729 44.030044 C 227.849729 42.358852 228.247632 41.032509 229.036806 40.051015 C 229.832612 39.069522 230.75442 38.578775 231.808863 38.578775 C 233.77185 38.578775 235.177774 39.500583 236.033265 41.350831 C 236.895388 43.181185 237.326449 45.396177 237.326449 47.989177 C 238.14215 47.989177 239.243015 47.617801 240.622411 46.881681 C 242.015071 46.138929 243.235307 44.587108 244.283118 42.239481 C 244.91313 40.899875 245.536512 40.170386 246.159893 40.051015 C 246.776642 39.931645 247.267389 40.249967 247.632133 40.999351 C 247.990246 41.735471 248.049931 42.743491 247.804558 44.030044 C 247.572448 45.323228 246.96233 46.642939 245.980836 47.989177 C 244.999343 49.322152 243.732685 50.456175 242.180864 51.384615 C 240.629043 52.319687 238.871639 52.836961 236.908651 52.929805 C 236.524012 55.032058 235.801155 57.174102 234.753344 59.362568 C 233.698901 61.531138 232.319505 63.348228 230.615154 64.807205 C 228.924067 66.272814 226.854972 67.002303 224.414501 67.002303 Z M 251.458633 67.002303 C 249.648174 67.002303 248.175934 66.611031 247.048542 65.828489 C 245.927783 65.032683 245.112082 64.084348 244.608072 62.990115 C 244.110693 61.875987 243.858688 60.84144 243.858688 59.886473 C 243.858688 58.076015 244.09743 57.041468 244.574913 56.782831 C 245.052396 56.517562 245.556407 56.689987 246.080312 57.313368 C 246.803169 58.082647 247.572448 58.467286 248.374885 58.467286 C 249.47575 58.467286 250.371031 58.069383 251.06073 57.273578 C 251.75706 56.477772 252.280965 55.555964 252.619183 54.508153 C 252.9574 53.45371 253.123193 52.551797 253.123193 51.78915 C 253.123193 49.826162 252.479917 48.035599 251.180101 46.410829 C 249.886916 44.779428 247.897402 43.340346 245.224821 42.100215 C 244.2168 41.57631 243.202148 40.773872 242.174232 39.699535 C 241.146317 38.611933 240.635675 37.259064 240.635675 35.634294 C 240.635675 34.009524 241.033578 32.79592 241.842647 31.993482 C 242.658348 31.17115 243.454153 30.766615 244.223432 30.766615 C 247.287284 30.766615 248.812578 33.273403 248.812578 38.300243 C 250.251661 39.10268 251.79685 39.984698 253.441515 40.946297 C 255.08618 41.901264 256.651265 43.00876 258.136769 44.255522 C 259.622273 45.495653 260.862403 46.941367 261.870424 48.599295 C 262.871813 50.250592 263.455404 52.173789 263.601302 54.368887 C 264.503215 53.022649 265.272494 51.78915 265.91577 50.66839 C 266.57231 49.54763 267.182427 48.334027 267.759386 47.027579 C 268.329714 45.707868 268.979622 44.109625 269.702479 42.239481 C 270.179962 40.992719 270.776816 40.296389 271.48641 40.157123 C 272.215899 40.017857 272.786226 40.309652 273.204024 41.032509 C 273.641717 41.742103 273.641717 42.743491 273.204024 44.030044 C 272.202635 47.040842 271.002295 49.925638 269.616266 52.684431 C 268.23687 55.429961 266.638627 57.883695 264.814905 60.045634 C 263.004447 62.19431 260.981774 63.892029 258.753518 65.145423 C 256.531894 66.378921 254.104687 67.002303 251.458633 67.002303 Z M 251.458633 67.002303 " stroke="#005f5c" stroke-width="7.356743" stroke-opacity="1" stroke-miterlimit="4"/></g><g fill="#26c6c1" fill-opacity="1"><g transform="translate(18.263317, 53.522081)"><g><path d="M 15.859375 11.96875 C 14.390625 11.96875 13.1875 11.675781 12.25 11.09375 C 11.320312 10.519531 10.644531 9.804688 10.21875 8.953125 C 9.800781 8.109375 9.59375 7.265625 9.59375 6.421875 C 9.59375 4.703125 10.078125 3.34375 11.046875 2.34375 C 12.023438 1.34375 13.273438 0.628906 14.796875 0.203125 C 16.316406 -0.210938 17.910156 -0.421875 19.578125 -0.421875 C 20.140625 -0.421875 20.757812 -0.378906 21.4375 -0.296875 C 21.71875 -1.453125 21.960938 -2.707031 22.171875 -4.0625 C 22.390625 -5.414062 22.597656 -6.835938 22.796875 -8.328125 C 22.003906 -7.421875 21.054688 -6.644531 19.953125 -6 C 18.859375 -5.351562 17.5625 -5.03125 16.0625 -5.03125 C 14.9375 -5.03125 13.800781 -5.234375 12.65625 -5.640625 C 11.519531 -6.046875 10.476562 -6.6875 9.53125 -7.5625 C 8.59375 -8.4375 7.832031 -9.554688 7.25 -10.921875 C 6.675781 -12.296875 6.390625 -13.941406 6.390625 -15.859375 C 6.390625 -17.179688 6.570312 -18.523438 6.9375 -19.890625 C 7.300781 -21.253906 7.804688 -22.601562 8.453125 -23.9375 C 6.898438 -24.519531 5.484375 -25.273438 4.203125 -26.203125 C 2.921875 -27.140625 1.898438 -28.21875 1.140625 -29.4375 C 0.378906 -30.664062 0 -32.015625 0 -33.484375 C 0 -34.441406 0.140625 -35.269531 0.421875 -35.96875 C 0.703125 -36.675781 1.03125 -37.226562 1.40625 -37.625 C 1.789062 -38.019531 2.113281 -38.21875 2.375 -38.21875 C 2.707031 -38.21875 2.875 -37.953125 2.875 -37.421875 C 2.875 -35.921875 3.175781 -34.488281 3.78125 -33.125 C 4.382812 -31.757812 5.226562 -30.519531 6.3125 -29.40625 C 7.40625 -28.289062 8.640625 -27.367188 10.015625 -26.640625 C 11.429688 -28.753906 13.109375 -30.675781 15.046875 -32.40625 C 16.992188 -34.144531 19.066406 -35.519531 21.265625 -36.53125 C 23.460938 -37.539062 25.648438 -38.046875 27.828125 -38.046875 C 29.710938 -38.046875 31.253906 -37.53125 32.453125 -36.5 C 33.648438 -35.476562 34.25 -34.148438 34.25 -32.515625 C 34.25 -31.390625 33.851562 -30.234375 33.0625 -29.046875 C 32.269531 -27.859375 31.113281 -26.757812 29.59375 -25.75 C 28.070312 -24.738281 26.21875 -23.921875 24.03125 -23.296875 C 21.851562 -22.671875 19.367188 -22.359375 16.578125 -22.359375 C 16.117188 -22.359375 15.664062 -22.375 15.21875 -22.40625 C 14.769531 -22.4375 14.320312 -22.476562 13.875 -22.53125 C 13.445312 -21.070312 13.234375 -19.507812 13.234375 -17.84375 C 13.234375 -15.925781 13.519531 -14.429688 14.09375 -13.359375 C 14.675781 -12.285156 15.375 -11.546875 16.1875 -11.140625 C 17.007812 -10.734375 17.785156 -10.53125 18.515625 -10.53125 C 19.503906 -10.53125 20.347656 -10.796875 21.046875 -11.328125 C 21.753906 -11.867188 22.332031 -12.550781 22.78125 -13.375 C 23.238281 -14.207031 23.566406 -15.0625 23.765625 -15.9375 C 23.785156 -16.164062 23.832031 -16.382812 23.90625 -16.59375 C 23.976562 -16.800781 24.070312 -17.003906 24.1875 -17.203125 C 24.238281 -17.316406 24.300781 -17.414062 24.375 -17.5 C 24.445312 -17.582031 24.492188 -17.65625 24.515625 -17.71875 C 24.941406 -18.25 25.460938 -18.671875 26.078125 -18.984375 C 26.703125 -19.296875 27.300781 -19.484375 27.875 -19.546875 C 28.457031 -19.617188 28.910156 -19.554688 29.234375 -19.359375 C 29.554688 -19.160156 29.648438 -18.820312 29.515625 -18.34375 C 29.234375 -17.300781 28.972656 -16.046875 28.734375 -14.578125 C 28.492188 -13.117188 28.257812 -11.535156 28.03125 -9.828125 C 27.800781 -8.117188 27.53125 -6.363281 27.21875 -4.5625 C 26.914062 -2.757812 26.523438 -1.015625 26.046875 0.671875 C 27.992188 1.179688 30 1.773438 32.0625 2.453125 C 34.132812 3.128906 36.144531 3.710938 38.09375 4.203125 C 40.039062 4.703125 41.789062 4.953125 43.34375 4.953125 C 44.070312 4.953125 44.800781 4.875 45.53125 4.71875 C 46.269531 4.5625 46.890625 4.304688 47.390625 3.953125 C 47.898438 3.597656 48.15625 3.15625 48.15625 2.625 C 48.15625 2.257812 48.265625 2.097656 48.484375 2.140625 C 48.710938 2.179688 48.941406 2.445312 49.171875 2.9375 C 49.398438 3.425781 49.515625 4.164062 49.515625 5.15625 C 49.515625 6.175781 49.195312 7.078125 48.5625 7.859375 C 47.925781 8.648438 47.09375 9.265625 46.0625 9.703125 C 45.03125 10.140625 43.910156 10.359375 42.703125 10.359375 C 41.179688 10.359375 39.671875 10.109375 38.171875 9.609375 C 36.679688 9.117188 35.207031 8.507812 33.75 7.78125 C 32.300781 7.050781 30.859375 6.296875 29.421875 5.515625 C 27.984375 4.742188 26.5625 4.078125 25.15625 3.515625 C 24.59375 5.117188 23.890625 6.550781 23.046875 7.8125 C 22.203125 9.082031 21.191406 10.09375 20.015625 10.84375 C 18.847656 11.59375 17.460938 11.96875 15.859375 11.96875 Z M 13.953125 5.078125 C 13.953125 5.492188 14.109375 5.847656 14.421875 6.140625 C 14.734375 6.441406 15.253906 6.59375 15.984375 6.59375 C 17.078125 6.59375 18 6.203125 18.75 5.421875 C 19.5 4.648438 20.128906 3.601562 20.640625 2.28125 C 20.460938 2.25 20.296875 2.234375 20.140625 2.234375 C 19.992188 2.234375 19.832031 2.234375 19.65625 2.234375 C 18.675781 2.234375 17.75 2.332031 16.875 2.53125 C 16 2.726562 15.289062 3.03125 14.75 3.4375 C 14.21875 3.851562 13.953125 4.398438 13.953125 5.078125 Z M 14.75 -25.15625 C 15.320312 -25.070312 15.898438 -25.03125 16.484375 -25.03125 C 19.273438 -25.03125 21.773438 -25.390625 23.984375 -26.109375 C 26.203125 -26.828125 27.953125 -27.769531 29.234375 -28.9375 C 30.515625 -30.113281 31.15625 -31.375 31.15625 -32.71875 C 31.15625 -33.488281 30.914062 -34.144531 30.4375 -34.6875 C 29.957031 -35.238281 29.128906 -35.515625 27.953125 -35.515625 C 26.203125 -35.515625 24.472656 -35.070312 22.765625 -34.1875 C 21.054688 -33.300781 19.503906 -32.070312 18.109375 -30.5 C 16.722656 -28.9375 15.601562 -27.15625 14.75 -25.15625 Z M 14.75 -25.15625 "/></g></g></g><g fill="#26c6c1" fill-opacity="1"><g transform="translate(50.474445, 53.522081)"><g><path d="M 6.34375 0 C 4.457031 0 2.890625 -0.695312 1.640625 -2.09375 C 0.398438 -3.488281 -0.21875 -5.398438 -0.21875 -7.828125 C -0.21875 -9.265625 0.00390625 -10.6875 0.453125 -12.09375 C 0.910156 -13.5 1.539062 -14.796875 2.34375 -15.984375 C 3.144531 -17.171875 4.101562 -18.113281 5.21875 -18.8125 C 6.332031 -19.519531 7.539062 -19.875 8.84375 -19.875 C 9.882812 -19.875 10.742188 -19.582031 11.421875 -19 C 12.097656 -18.425781 12.617188 -17.726562 12.984375 -16.90625 C 13.460938 -17.5 14.039062 -17.953125 14.71875 -18.265625 C 15.394531 -18.578125 16.039062 -18.738281 16.65625 -18.75 C 17.28125 -18.757812 17.753906 -18.644531 18.078125 -18.40625 C 18.398438 -18.164062 18.445312 -17.796875 18.21875 -17.296875 C 17.914062 -16.554688 17.632812 -15.628906 17.375 -14.515625 C 17.125 -13.410156 16.929688 -12.328125 16.796875 -11.265625 C 16.671875 -10.210938 16.609375 -9.390625 16.609375 -8.796875 C 16.609375 -7.328125 16.765625 -6.332031 17.078125 -5.8125 C 17.390625 -5.289062 17.769531 -5.03125 18.21875 -5.03125 C 19.125 -5.03125 20.039062 -5.816406 20.96875 -7.390625 C 21.894531 -8.972656 23.023438 -11.375 24.359375 -14.59375 C 24.660156 -15.320312 25.023438 -15.71875 25.453125 -15.78125 C 25.878906 -15.851562 26.210938 -15.6875 26.453125 -15.28125 C 26.691406 -14.875 26.679688 -14.289062 26.421875 -13.53125 C 25.628906 -11.132812 24.695312 -8.90625 23.625 -6.84375 C 22.5625 -4.789062 21.429688 -3.144531 20.234375 -1.90625 C 19.035156 -0.664062 17.800781 -0.03125 16.53125 0 C 15.34375 0.03125 14.328125 -0.304688 13.484375 -1.015625 C 12.640625 -1.722656 12.019531 -2.664062 11.625 -3.84375 C 11.007812 -2.769531 10.265625 -1.859375 9.390625 -1.109375 C 8.515625 -0.367188 7.5 0 6.34375 0 Z M 5.53125 -7.953125 C 5.53125 -7.128906 5.675781 -6.4375 5.96875 -5.875 C 6.269531 -5.3125 6.632812 -5.03125 7.0625 -5.03125 C 7.675781 -5.03125 8.28125 -5.351562 8.875 -6 C 9.46875 -6.644531 9.988281 -7.539062 10.4375 -8.6875 C 10.894531 -9.832031 11.207031 -11.132812 11.375 -12.59375 C 11.539062 -14.175781 11.40625 -15.265625 10.96875 -15.859375 C 10.53125 -16.453125 10.046875 -16.75 9.515625 -16.75 C 9.003906 -16.75 8.515625 -16.472656 8.046875 -15.921875 C 7.585938 -15.367188 7.164062 -14.648438 6.78125 -13.765625 C 6.40625 -12.878906 6.101562 -11.925781 5.875 -10.90625 C 5.644531 -9.894531 5.53125 -8.910156 5.53125 -7.953125 Z M 5.53125 -7.953125 "/></g></g></g><g fill="#26c6c1" fill-opacity="1"><g transform="translate(73.258951, 53.522081)"><g><path d="M 7.234375 0 C 5.429688 0 3.941406 -0.835938 2.765625 -2.515625 C 1.597656 -4.191406 1.015625 -6.539062 1.015625 -9.5625 C 1.015625 -11 1.175781 -12.796875 1.5 -14.953125 C 1.820312 -17.109375 2.351562 -19.335938 3.09375 -21.640625 L 0.640625 -21.640625 C -0.148438 -21.640625 -0.75 -21.796875 -1.15625 -22.109375 C -1.570312 -22.421875 -1.78125 -22.734375 -1.78125 -23.046875 C -1.78125 -23.265625 -1.703125 -23.472656 -1.546875 -23.671875 C -1.390625 -23.867188 -1.085938 -23.96875 -0.640625 -23.96875 L 3.9375 -23.96875 C 4.101562 -24.425781 4.285156 -24.867188 4.484375 -25.296875 C 4.679688 -25.734375 4.878906 -26.164062 5.078125 -26.59375 C 5.441406 -27.351562 5.972656 -27.953125 6.671875 -28.390625 C 7.378906 -28.828125 8.070312 -29.109375 8.75 -29.234375 C 9.425781 -29.359375 9.953125 -29.300781 10.328125 -29.0625 C 10.710938 -28.820312 10.78125 -28.410156 10.53125 -27.828125 C 10.25 -27.148438 9.976562 -26.484375 9.71875 -25.828125 C 9.46875 -25.179688 9.226562 -24.5625 9 -23.96875 L 13.578125 -23.96875 C 14.160156 -23.96875 14.507812 -23.785156 14.625 -23.421875 C 14.738281 -23.054688 14.632812 -22.691406 14.3125 -22.328125 C 13.988281 -21.960938 13.429688 -21.78125 12.640625 -21.78125 C 12.023438 -21.78125 11.34375 -21.78125 10.59375 -21.78125 C 9.84375 -21.78125 9.0625 -21.765625 8.25 -21.734375 C 7.488281 -19.253906 7.015625 -17.066406 6.828125 -15.171875 C 6.640625 -13.285156 6.546875 -11.507812 6.546875 -9.84375 C 6.546875 -7.925781 6.734375 -6.644531 7.109375 -6 C 7.492188 -5.351562 7.882812 -5.03125 8.28125 -5.03125 C 9.101562 -5.03125 9.957031 -5.773438 10.84375 -7.265625 C 11.726562 -8.765625 12.820312 -11.207031 14.125 -14.59375 C 14.40625 -15.320312 14.753906 -15.726562 15.171875 -15.8125 C 15.597656 -15.894531 15.9375 -15.722656 16.1875 -15.296875 C 16.445312 -14.878906 16.445312 -14.289062 16.1875 -13.53125 C 15.601562 -11.75 15.019531 -10.046875 14.4375 -8.421875 C 13.863281 -6.804688 13.226562 -5.363281 12.53125 -4.09375 C 11.84375 -2.832031 11.078125 -1.832031 10.234375 -1.09375 C 9.390625 -0.363281 8.390625 0 7.234375 0 Z M 7.234375 0 "/></g></g></g><g fill="#26c6c1" fill-opacity="1"><g transform="translate(85.813684, 53.522081)"><g><path d="M 7.0625 0 C 5 0.03125 3.445312 -0.6875 2.40625 -2.15625 C 1.363281 -3.625 0.816406 -5.46875 0.765625 -7.6875 C 0.734375 -8.957031 0.796875 -10.304688 0.953125 -11.734375 C 1.109375 -13.160156 1.492188 -14.5625 2.109375 -15.9375 C 2.472656 -16.78125 3.019531 -17.425781 3.75 -17.875 C 4.488281 -18.332031 5.222656 -18.609375 5.953125 -18.703125 C 6.691406 -18.804688 7.269531 -18.738281 7.6875 -18.5 C 8.113281 -18.257812 8.203125 -17.859375 7.953125 -17.296875 C 7.472656 -16.171875 7.09375 -14.9375 6.8125 -13.59375 C 6.53125 -12.25 6.375 -10.988281 6.34375 -9.8125 C 6.34375 -8.09375 6.550781 -6.863281 6.96875 -6.125 C 7.394531 -5.394531 7.890625 -5.03125 8.453125 -5.03125 C 9.441406 -5.03125 10.492188 -5.8125 11.609375 -7.375 C 12.722656 -8.9375 13.96875 -11.34375 15.34375 -14.59375 C 15.65625 -15.320312 16.019531 -15.71875 16.4375 -15.78125 C 16.863281 -15.851562 17.195312 -15.6875 17.4375 -15.28125 C 17.675781 -14.875 17.671875 -14.289062 17.421875 -13.53125 C 16.828125 -11.726562 16.132812 -10.015625 15.34375 -8.390625 C 14.5625 -6.773438 13.710938 -5.335938 12.796875 -4.078125 C 11.878906 -2.828125 10.941406 -1.832031 9.984375 -1.09375 C 9.023438 -0.363281 8.050781 0 7.0625 0 Z M 4.5625 -23.515625 C 4.5625 -24.242188 4.769531 -24.910156 5.1875 -25.515625 C 5.613281 -26.117188 6.164062 -26.585938 6.84375 -26.921875 C 7.519531 -27.265625 8.238281 -27.421875 9 -27.390625 C 9.757812 -27.367188 10.363281 -27.128906 10.8125 -26.671875 C 11.269531 -26.222656 11.5 -25.675781 11.5 -25.03125 C 11.5 -23.925781 11.03125 -23.050781 10.09375 -22.40625 C 9.164062 -21.757812 8.097656 -21.4375 6.890625 -21.4375 C 6.273438 -21.4375 5.734375 -21.625 5.265625 -22 C 4.796875 -22.382812 4.5625 -22.890625 4.5625 -23.515625 Z M 4.5625 -23.515625 "/></g></g></g><g fill="#26c6c1" fill-opacity="1"><g transform="translate(99.594292, 53.522081)"><g><path d="M 15.515625 0 C 14.554688 0 13.757812 -0.296875 13.125 -0.890625 C 12.488281 -1.484375 12.015625 -2.222656 11.703125 -3.109375 C 11.398438 -3.992188 11.25 -4.898438 11.25 -5.828125 C 11.25 -6.816406 11.347656 -7.847656 11.546875 -8.921875 C 11.742188 -9.992188 11.941406 -10.992188 12.140625 -11.921875 C 12.335938 -12.847656 12.445312 -13.597656 12.46875 -14.171875 C 12.5 -14.753906 12.359375 -15.046875 12.046875 -15.046875 C 11.628906 -15.046875 11.15625 -14.710938 10.625 -14.046875 C 10.101562 -13.390625 9.585938 -12.519531 9.078125 -11.4375 C 8.578125 -10.351562 8.113281 -9.179688 7.6875 -7.921875 C 7.269531 -6.671875 6.925781 -5.445312 6.65625 -4.25 C 6.382812 -3.050781 6.25 -2.015625 6.25 -1.140625 C 6.25 -0.828125 6.128906 -0.585938 5.890625 -0.421875 C 5.648438 -0.253906 5.347656 -0.171875 4.984375 -0.171875 C 4.421875 -0.171875 3.796875 -0.378906 3.109375 -0.796875 C 2.421875 -1.222656 1.828125 -1.9375 1.328125 -2.9375 C 0.835938 -3.9375 0.59375 -5.269531 0.59375 -6.9375 C 0.59375 -8.625 0.660156 -10.15625 0.796875 -11.53125 C 0.941406 -12.914062 1.335938 -14.382812 1.984375 -15.9375 C 2.378906 -16.84375 2.914062 -17.519531 3.59375 -17.96875 C 4.269531 -18.414062 4.945312 -18.679688 5.625 -18.765625 C 6.300781 -18.859375 6.859375 -18.804688 7.296875 -18.609375 C 7.734375 -18.410156 7.921875 -18.113281 7.859375 -17.71875 C 7.691406 -16.675781 7.40625 -15.640625 7 -14.609375 C 6.59375 -13.578125 6.316406 -12.414062 6.171875 -11.125 C 7.578125 -13.882812 9.023438 -15.992188 10.515625 -17.453125 C 12.015625 -18.921875 13.582031 -19.65625 15.21875 -19.65625 C 16.125 -19.65625 16.863281 -19.3125 17.4375 -18.625 C 18.019531 -17.9375 18.3125 -17.097656 18.3125 -16.109375 C 18.3125 -15.035156 18.179688 -13.921875 17.921875 -12.765625 C 17.671875 -11.609375 17.414062 -10.488281 17.15625 -9.40625 C 16.90625 -8.320312 16.78125 -7.328125 16.78125 -6.421875 C 16.78125 -5.492188 17.078125 -5.03125 17.671875 -5.03125 C 18.210938 -5.03125 18.785156 -5.390625 19.390625 -6.109375 C 19.992188 -6.828125 20.578125 -7.710938 21.140625 -8.765625 C 21.703125 -9.828125 22.210938 -10.882812 22.671875 -11.9375 C 23.140625 -13 23.488281 -13.867188 23.71875 -14.546875 C 23.96875 -15.253906 24.296875 -15.671875 24.703125 -15.796875 C 25.117188 -15.921875 25.46875 -15.800781 25.75 -15.4375 C 26.03125 -15.070312 26.054688 -14.492188 25.828125 -13.703125 C 25.660156 -13.078125 25.363281 -12.207031 24.9375 -11.09375 C 24.519531 -9.976562 24 -8.785156 23.375 -7.515625 C 22.757812 -6.253906 22.039062 -5.050781 21.21875 -3.90625 C 20.40625 -2.769531 19.519531 -1.832031 18.5625 -1.09375 C 17.601562 -0.363281 16.585938 0 15.515625 0 Z M 15.515625 0 "/></g></g></g><g fill="#26c6c1" fill-opacity="1"><g transform="translate(121.744725, 53.522081)"><g><path d="M 15.515625 0 C 14.554688 0 13.757812 -0.296875 13.125 -0.890625 C 12.488281 -1.484375 12.015625 -2.222656 11.703125 -3.109375 C 11.398438 -3.992188 11.25 -4.898438 11.25 -5.828125 C 11.25 -6.816406 11.347656 -7.847656 11.546875 -8.921875 C 11.742188 -9.992188 11.941406 -10.992188 12.140625 -11.921875 C 12.335938 -12.847656 12.445312 -13.597656 12.46875 -14.171875 C 12.5 -14.753906 12.359375 -15.046875 12.046875 -15.046875 C 11.628906 -15.046875 11.15625 -14.707031 10.625 -14.03125 C 10.101562 -13.351562 9.585938 -12.460938 9.078125 -11.359375 C 8.578125 -10.265625 8.113281 -9.082031 7.6875 -7.8125 C 7.269531 -6.550781 6.925781 -5.320312 6.65625 -4.125 C 6.382812 -2.925781 6.25 -1.875 6.25 -0.96875 C 6.25 -0.4375 5.96875 -0.117188 5.40625 -0.015625 C 4.84375 0.078125 4.179688 -0.0703125 3.421875 -0.46875 C 2.660156 -0.863281 2 -1.523438 1.4375 -2.453125 C 0.875 -3.378906 0.59375 -4.617188 0.59375 -6.171875 C 0.59375 -9.753906 0.894531 -13.125 1.5 -16.28125 C 2.101562 -19.4375 2.929688 -22.21875 3.984375 -24.625 C 5.046875 -27.039062 6.285156 -28.929688 7.703125 -30.296875 C 9.128906 -31.660156 10.660156 -32.34375 12.296875 -32.34375 C 13.453125 -32.34375 14.382812 -31.953125 15.09375 -31.171875 C 15.800781 -30.398438 16.15625 -29.351562 16.15625 -28.03125 C 16.15625 -26.789062 15.722656 -25.457031 14.859375 -24.03125 C 14.003906 -22.613281 12.84375 -21.15625 11.375 -19.65625 C 9.90625 -18.164062 8.253906 -16.671875 6.421875 -15.171875 C 6.253906 -13.878906 6.171875 -12.53125 6.171875 -11.125 C 7.578125 -13.882812 9.023438 -15.992188 10.515625 -17.453125 C 12.015625 -18.921875 13.582031 -19.65625 15.21875 -19.65625 C 16.125 -19.65625 16.863281 -19.3125 17.4375 -18.625 C 18.019531 -17.9375 18.3125 -17.097656 18.3125 -16.109375 C 18.3125 -15.035156 18.179688 -13.921875 17.921875 -12.765625 C 17.671875 -11.609375 17.414062 -10.488281 17.15625 -9.40625 C 16.90625 -8.320312 16.78125 -7.328125 16.78125 -6.421875 C 16.78125 -5.492188 17.078125 -5.03125 17.671875 -5.03125 C 18.210938 -5.03125 18.785156 -5.390625 19.390625 -6.109375 C 19.992188 -6.828125 20.578125 -7.710938 21.140625 -8.765625 C 21.703125 -9.828125 22.210938 -10.882812 22.671875 -11.9375 C 23.140625 -13 23.488281 -13.867188 23.71875 -14.546875 C 23.96875 -15.253906 24.296875 -15.671875 24.703125 -15.796875 C 25.117188 -15.921875 25.46875 -15.800781 25.75 -15.4375 C 26.03125 -15.070312 26.054688 -14.492188 25.828125 -13.703125 C 25.660156 -13.078125 25.363281 -12.207031 24.9375 -11.09375 C 24.519531 -9.976562 24 -8.785156 23.375 -7.515625 C 22.757812 -6.253906 22.039062 -5.050781 21.21875 -3.90625 C 20.40625 -2.769531 19.519531 -1.832031 18.5625 -1.09375 C 17.601562 -0.363281 16.585938 0 15.515625 0 Z M 7.015625 -18.765625 C 8.960938 -20.378906 10.472656 -22.066406 11.546875 -23.828125 C 12.617188 -25.585938 13.15625 -27.101562 13.15625 -28.375 C 13.15625 -29.101562 12.957031 -29.46875 12.5625 -29.46875 C 12.082031 -29.46875 11.488281 -29.007812 10.78125 -28.09375 C 10.070312 -27.175781 9.378906 -25.914062 8.703125 -24.3125 C 8.023438 -22.707031 7.460938 -20.859375 7.015625 -18.765625 Z M 7.015625 -18.765625 "/></g></g></g><g fill="#26c6c1" fill-opacity="1"><g transform="translate(143.895159, 53.522081)"><g><path d="M 6.546875 0 C 5.285156 0 4.125 -0.316406 3.0625 -0.953125 C 2.007812 -1.585938 1.164062 -2.472656 0.53125 -3.609375 C -0.101562 -4.753906 -0.421875 -6.085938 -0.421875 -7.609375 C -0.421875 -9.210938 -0.15625 -10.75 0.375 -12.21875 C 0.914062 -13.6875 1.65625 -14.988281 2.59375 -16.125 C 3.539062 -17.269531 4.613281 -18.171875 5.8125 -18.828125 C 7.007812 -19.492188 8.257812 -19.828125 9.5625 -19.828125 C 10.0625 -19.828125 10.457031 -19.691406 10.75 -19.421875 C 11.050781 -19.160156 11.1875 -18.851562 11.15625 -18.5 C 11.132812 -18.144531 10.882812 -17.84375 10.40625 -17.59375 C 9.164062 -16.9375 8.171875 -16.128906 7.421875 -15.171875 C 6.671875 -14.210938 6.132812 -13.210938 5.8125 -12.171875 C 5.488281 -11.128906 5.328125 -10.128906 5.328125 -9.171875 C 5.328125 -7.765625 5.53125 -6.722656 5.9375 -6.046875 C 6.34375 -5.367188 6.859375 -5.03125 7.484375 -5.03125 C 8.242188 -5.03125 8.929688 -5.453125 9.546875 -6.296875 C 10.171875 -7.140625 10.609375 -8.082031 10.859375 -9.125 C 10.097656 -9.632812 9.523438 -10.285156 9.140625 -11.078125 C 8.765625 -11.867188 8.578125 -12.6875 8.578125 -13.53125 C 8.578125 -14.519531 8.8125 -15.300781 9.28125 -15.875 C 9.75 -16.457031 10.289062 -16.75 10.90625 -16.75 C 12.0625 -16.75 12.894531 -16.203125 13.40625 -15.109375 C 13.914062 -14.023438 14.171875 -12.722656 14.171875 -11.203125 C 14.648438 -11.203125 15.296875 -11.421875 16.109375 -11.859375 C 16.921875 -12.296875 17.640625 -13.207031 18.265625 -14.59375 C 18.628906 -15.375 18.992188 -15.800781 19.359375 -15.875 C 19.734375 -15.945312 20.023438 -15.765625 20.234375 -15.328125 C 20.441406 -14.890625 20.476562 -14.289062 20.34375 -13.53125 C 20.195312 -12.769531 19.832031 -11.992188 19.25 -11.203125 C 18.675781 -10.410156 17.929688 -9.738281 17.015625 -9.1875 C 16.097656 -8.644531 15.0625 -8.34375 13.90625 -8.28125 C 13.6875 -7.039062 13.265625 -5.78125 12.640625 -4.5 C 12.023438 -3.21875 11.210938 -2.144531 10.203125 -1.28125 C 9.203125 -0.425781 7.984375 0 6.546875 0 Z M 6.546875 0 "/></g></g></g><g fill="#26c6c1" fill-opacity="1"><g transform="translate(160.507982, 53.522081)"><g><path d="M 5.875 0 C 4.800781 0 3.929688 -0.226562 3.265625 -0.6875 C 2.609375 -1.15625 2.128906 -1.710938 1.828125 -2.359375 C 1.535156 -3.015625 1.390625 -3.625 1.390625 -4.1875 C 1.390625 -5.257812 1.53125 -5.867188 1.8125 -6.015625 C 2.09375 -6.171875 2.390625 -6.066406 2.703125 -5.703125 C 3.128906 -5.253906 3.582031 -5.03125 4.0625 -5.03125 C 4.707031 -5.03125 5.234375 -5.257812 5.640625 -5.71875 C 6.046875 -6.1875 6.347656 -6.726562 6.546875 -7.34375 C 6.742188 -7.96875 6.84375 -8.507812 6.84375 -8.96875 C 6.84375 -10.125 6.460938 -11.179688 5.703125 -12.140625 C 4.941406 -13.097656 3.773438 -13.941406 2.203125 -14.671875 C 1.609375 -14.984375 1.007812 -15.457031 0.40625 -16.09375 C -0.195312 -16.726562 -0.5 -17.523438 -0.5 -18.484375 C -0.5 -19.441406 -0.257812 -20.160156 0.21875 -20.640625 C 0.695312 -21.117188 1.160156 -21.359375 1.609375 -21.359375 C 3.410156 -21.359375 4.3125 -19.875 4.3125 -16.90625 C 5.15625 -16.425781 6.0625 -15.90625 7.03125 -15.34375 C 8.007812 -14.78125 8.9375 -14.128906 9.8125 -13.390625 C 10.6875 -12.660156 11.414062 -11.8125 12 -10.84375 C 12.59375 -9.875 12.929688 -8.738281 13.015625 -7.4375 C 13.554688 -8.226562 14.015625 -8.953125 14.390625 -9.609375 C 14.773438 -10.273438 15.132812 -10.992188 15.46875 -11.765625 C 15.8125 -12.546875 16.191406 -13.488281 16.609375 -14.59375 C 16.898438 -15.320312 17.253906 -15.726562 17.671875 -15.8125 C 18.097656 -15.894531 18.4375 -15.722656 18.6875 -15.296875 C 18.9375 -14.878906 18.9375 -14.289062 18.6875 -13.53125 C 18.09375 -11.75 17.382812 -10.046875 16.5625 -8.421875 C 15.75 -6.804688 14.804688 -5.363281 13.734375 -4.09375 C 12.671875 -2.832031 11.484375 -1.832031 10.171875 -1.09375 C 8.859375 -0.363281 7.425781 0 5.875 0 Z M 5.875 0 "/></g></g></g><g clip-path="url(#b33dd52bc6)"><path stroke-linecap="butt" transform="matrix(0.337553, 0, 0, 0.337553, 72.123746, 49.822048)" fill="none" stroke-linejoin="miter" d="M 16.343743 61.999017 L 17.072796 53.123095 L 10.846921 53.123095 L 10.117868 61.999017 L 5.986572 61.999017 L 6.727197 53.123095 L 1.022074 53.123095 L 1.022074 49.396828 L 7.074365 49.396828 L 7.861278 40.567195 L 2.098294 40.567195 L 2.098294 36.829355 L 8.150585 36.829355 L 8.983787 27.791422 L 13.115083 27.791422 L 12.270308 36.829355 L 18.484611 36.829355 L 19.340958 27.791422 L 23.472254 27.791422 L 22.615907 36.829355 L 28.332603 36.829355 L 28.332603 40.567195 L 22.338173 40.567195 L 21.551259 49.396828 L 27.256383 49.396828 L 27.256383 53.123095 L 21.204092 53.123095 L 20.475039 61.999017 Z M 11.981002 40.567195 L 11.194088 49.396828 L 17.419963 49.396828 L 18.206877 40.567195 Z M 32.116731 61.999017 L 32.116731 57.416403 L 33.979865 57.254391 C 35.079229 57.138668 35.623125 56.606345 35.623125 55.657419 L 35.623125 29.376821 L 32.406038 29.191665 L 32.406038 24.389178 L 47.901291 24.389178 C 53.43283 24.389178 57.760855 25.870427 60.873792 28.809781 C 63.98673 31.749134 65.537412 36.100303 65.537412 41.87486 C 65.537412 45.450688 65.06295 48.575197 64.114025 51.236817 C 63.176672 53.886864 61.903723 55.958298 60.283607 57.474264 C 57.043375 60.494623 53.004657 61.999017 48.190598 61.999017 Z M 42.520191 29.874428 L 42.520191 56.571628 L 48.294748 56.571628 C 51.53498 56.571628 54.057732 55.40283 55.863005 53.065234 C 57.679849 50.727637 58.582485 47.336966 58.582485 42.893219 C 58.582485 34.214025 54.902507 29.874428 47.554123 29.874428 Z M 83.856297 32.698059 C 86.679928 32.698059 88.924946 33.392395 90.579779 34.769494 C 92.246184 36.146592 93.079387 38.079159 93.079387 40.567195 C 93.079387 42.2336 92.720647 43.691705 92.003167 44.953081 C 91.285687 46.214457 90.394623 47.198099 89.341547 47.915579 C 88.288472 48.633059 87.003951 49.223244 85.499558 49.674562 C 82.976805 50.426759 80.13003 50.808643 76.970803 50.808643 C 77.074954 52.799072 77.699856 54.407616 78.833937 55.634275 C 79.968018 56.860934 81.692285 57.474264 84.041453 57.474264 C 86.379049 57.474264 88.705073 56.641061 91.031097 54.986228 L 93.183537 59.568843 C 92.43134 60.251606 91.158392 60.945941 89.364692 61.663421 C 87.582564 62.380901 85.534274 62.728069 83.231395 62.728069 C 78.637209 62.728069 75.258109 61.466693 73.117241 58.920796 C 70.964801 56.374899 69.900154 52.868505 69.900154 48.424758 C 69.900154 43.981011 71.126813 40.254744 73.56856 37.234384 C 76.021878 34.214025 79.447267 32.698059 83.856297 32.698059 Z M 81.275683 45.635844 C 82.652782 45.392826 83.925731 44.84893 85.094529 43.992583 C 86.263327 43.136236 86.853512 42.12945 86.853512 40.960652 C 86.853512 38.657772 85.719431 37.512119 83.474412 37.512119 C 81.356689 37.512119 79.725001 38.345321 78.59092 40.034871 C 77.468411 41.712848 76.843509 43.714849 76.727786 46.052445 C 78.394191 46.017728 79.898585 45.878861 81.275683 45.635844 Z M 114.707937 23.717987 C 119.174829 23.717987 122.92424 25.303386 125.933027 28.462613 C 128.941815 31.633412 130.45778 36.470615 130.45778 42.974225 C 130.45778 49.477834 128.953387 54.396043 125.956172 57.728854 C 122.970529 61.061664 118.920239 62.728069 113.805301 62.728069 C 108.701935 62.728069 104.686362 61.073236 101.781725 57.76357 C 98.877088 54.442332 97.430556 49.616701 97.430556 43.275103 C 97.430556 39.803426 97.939735 36.771494 98.946522 34.156164 C 99.976453 31.529261 101.307262 29.504116 102.973667 28.069156 C 106.329622 25.164519 110.241045 23.717987 114.707937 23.717987 Z M 104.501205 42.997369 C 104.501205 52.359326 107.741438 57.034518 114.221902 57.034518 C 117.69358 57.034518 120.123754 55.599558 121.523997 52.718066 C 122.808518 50.195314 123.444992 47.117093 123.444992 43.460259 C 123.444992 40.173738 122.877951 37.153379 121.74387 34.399181 C 121.095824 32.894788 120.135326 31.702845 118.827661 30.834926 C 117.531568 29.978579 115.842018 29.538833 113.770584 29.538833 C 111.69915 29.538833 109.917022 30.221596 108.424201 31.587123 C 106.942952 32.941077 105.913021 34.572765 105.34598 36.505332 C 104.77894 38.426327 104.501205 40.590339 104.501205 42.997369 Z M 144.70323 21.68127 L 144.70323 57.30068 L 147.93189 57.474264 L 147.93189 61.999017 L 134.473354 61.999017 L 134.473354 57.705709 L 136.336487 57.532125 C 137.42428 57.416403 137.979748 56.814645 137.979748 55.715281 L 137.979748 27.849283 C 137.979748 27.016081 137.505286 26.564763 136.567933 26.495329 L 134.577504 26.379606 L 134.577504 21.68127 Z M 154.886817 55.657419 L 154.886817 28.13859 C 154.886817 27.52526 154.771095 27.108659 154.562794 26.888786 C 154.366066 26.657341 153.995753 26.530046 153.475002 26.495329 L 151.484573 26.379606 L 151.484573 21.68127 L 161.552438 21.68127 L 161.552438 36.887217 C 163.508149 34.098303 166.262347 32.698059 169.803458 32.698059 C 172.673378 32.698059 174.895251 33.531262 176.457506 35.174523 C 178.031333 36.817783 178.806675 39.271102 178.806675 42.546051 L 178.806675 57.30068 L 182.023762 57.474264 L 182.023762 61.999017 L 168.565226 61.999017 L 168.565226 57.705709 L 170.42836 57.532125 C 170.9954 57.451119 171.412002 57.30068 171.666591 57.057663 C 171.932753 56.814645 172.07162 56.340183 172.07162 55.657419 L 172.07162 44.015728 C 172.07162 42.048444 171.75917 40.54405 171.134268 39.490975 C 170.509366 38.437899 169.305851 37.905575 167.512151 37.905575 C 165.730023 37.905575 164.295063 38.461044 163.218843 39.583553 C 162.142623 40.69449 161.610299 42.036872 161.610299 43.622271 L 161.610299 57.30068 L 164.838959 57.474264 L 164.838959 61.999017 L 151.380423 61.999017 L 151.380423 57.705709 L 153.243557 57.532125 C 153.810597 57.451119 154.227198 57.30068 154.481788 57.057663 C 154.74795 56.814645 154.886817 56.340183 154.886817 55.657419 Z M 198.363791 57.867721 C 202.483515 57.867721 204.531804 54.558055 204.531804 47.915579 C 204.531804 44.571196 204.068914 42.025299 203.143133 40.301033 C 202.217353 38.553622 200.678242 37.685703 198.502658 37.685703 C 196.338646 37.685703 194.741674 38.518905 193.723315 40.173738 C 192.716529 41.828571 192.20735 44.085161 192.20735 46.955081 C 192.20735 52.266748 193.190992 55.61113 195.146703 56.965085 C 196.014622 57.566842 197.07927 57.867721 198.363791 57.867721 Z M 185.356573 47.753567 C 185.356573 44.964653 185.773174 42.546051 186.606377 40.486189 C 187.428007 38.426327 188.538944 36.8525 189.939187 35.753135 C 192.623951 33.716418 195.574877 32.698059 198.815109 32.698059 C 201.083272 32.698059 202.992694 33.068372 204.566521 33.808996 C 206.128776 34.549621 207.355435 35.394395 208.234927 36.366465 C 209.114419 37.31539 209.866615 38.715634 210.491517 40.54405 C 211.116419 42.372467 211.42887 44.524907 211.42887 47.024515 C 211.42887 52.220459 210.167494 56.155026 207.644742 58.83979 C 205.12199 61.512982 201.881757 62.843792 197.935617 62.843792 C 194.00105 62.843792 190.911257 61.570843 188.689383 59.036519 C 186.46751 56.47905 185.356573 52.718066 185.356573 47.753567 Z M 215.155137 61.999017 L 215.155137 57.416403 L 217.203427 57.254391 C 218.175497 57.173385 218.661532 56.652634 218.661532 55.657419 L 218.661532 29.376821 L 215.444444 29.191665 L 215.444444 24.389178 L 225.628031 24.389178 L 241.620892 50.345753 L 241.736614 50.345753 L 241.736614 29.376821 L 238.010347 29.191665 L 238.010347 24.389178 L 251.804479 24.389178 L 251.804479 28.971792 L 249.767761 29.145376 C 248.865125 29.21481 248.413807 29.804995 248.413807 30.892787 L 248.413807 61.999017 L 241.794476 61.999017 L 225.454447 35.648985 L 225.338725 35.648985 L 225.338725 57.034518 L 229.018703 57.19653 L 229.018703 61.999017 Z M 268.086646 57.867721 C 272.20637 57.867721 274.254659 54.558055 274.254659 47.915579 C 274.254659 44.571196 273.791769 42.025299 272.865989 40.301033 C 271.940208 38.553622 270.401098 37.685703 268.225513 37.685703 C 266.061501 37.685703 264.464529 38.518905 263.44617 40.173738 C 262.439384 41.828571 261.930205 44.085161 261.930205 46.955081 C 261.930205 52.266748 262.913847 55.61113 264.869558 56.965085 C 265.737478 57.566842 266.802125 57.867721 268.086646 57.867721 Z M 255.079428 47.753567 C 255.079428 44.964653 255.496029 42.546051 256.329232 40.486189 C 257.150862 38.426327 258.261799 36.8525 259.662042 35.753135 C 262.346806 33.716418 265.297732 32.698059 268.537964 32.698059 C 270.806127 32.698059 272.715549 33.068372 274.289376 33.808996 C 275.851631 34.549621 277.07829 35.394395 277.957782 36.366465 C 278.837274 37.31539 279.58947 38.715634 280.2028 40.54405 C 280.839274 42.372467 281.151725 44.524907 281.151725 47.024515 C 281.151725 52.220459 279.890349 56.155026 277.367597 58.83979 C 274.844845 61.512982 271.604612 62.843792 267.658472 62.843792 C 263.723905 62.843792 260.634112 61.570843 258.412238 59.036519 C 256.190365 56.47905 255.079428 52.718066 255.079428 47.753567 Z M 311.864498 61.999017 L 284.993715 61.999017 L 284.993715 57.416403 L 286.856849 57.254391 C 287.956213 57.138668 288.500109 56.606345 288.500109 55.657419 L 288.500109 29.376821 L 285.283021 29.191665 L 285.283021 24.389178 L 311.181735 24.389178 L 311.181735 33.785852 L 305.407178 34.179308 L 305.407178 31.911146 C 305.407178 31.274672 305.3146 30.823354 305.117872 30.568764 C 304.932716 30.29103 304.49297 30.163735 303.763918 30.163735 L 295.397175 30.163735 L 295.397175 39.82657 L 308.462254 39.82657 L 308.462254 45.601127 L 295.397175 45.601127 L 295.397175 56.178171 L 304.504542 56.178171 C 305.187305 56.178171 305.615479 56.039304 305.800635 55.76157 C 305.997363 55.472263 306.089941 55.009373 306.089941 54.361326 L 306.089941 51.537695 L 311.864498 51.931152 Z M 315.926361 61.999017 L 315.926361 57.416403 L 317.974651 57.254391 C 318.94672 57.173385 319.432755 56.652634 319.432755 55.657419 L 319.432755 29.376821 L 316.215667 29.191665 L 316.215667 24.389178 L 326.387682 24.389178 L 342.392115 50.345753 L 342.507838 50.345753 L 342.507838 29.376821 L 338.781571 29.191665 L 338.781571 24.389178 L 352.56413 24.389178 L 352.56413 28.971792 L 350.538985 29.145376 C 349.636349 29.21481 349.185031 29.804995 349.185031 30.892787 L 349.185031 61.999017 L 342.554127 61.999017 L 326.225671 35.648985 L 326.098376 35.648985 L 326.098376 57.034518 L 329.789926 57.19653 L 329.789926 61.999017 Z M 382.767724 61.999017 L 355.908513 61.999017 L 355.908513 57.416403 L 357.771646 57.254391 C 358.859438 57.138668 359.414907 56.606345 359.414907 55.657419 L 359.414907 29.376821 L 356.197819 29.191665 L 356.197819 24.389178 L 382.096533 24.389178 L 382.096533 33.785852 L 376.321976 34.179308 L 376.321976 31.911146 C 376.321976 31.274672 376.229398 30.823354 376.032669 30.568764 C 375.847513 30.29103 375.396195 30.163735 374.678715 30.163735 L 366.311973 30.163735 L 366.311973 39.82657 L 379.377052 39.82657 L 379.377052 45.601127 L 366.311973 45.601127 L 366.311973 56.178171 L 375.407767 56.178171 C 376.090531 56.178171 376.530277 56.039304 376.70386 55.76157 C 376.900589 55.472263 376.993167 55.009373 376.993167 54.361326 L 376.993167 51.537695 L 382.767724 51.931152 Z M 399.049891 24.389178 L 408.666437 49.963868 L 408.770588 49.963868 L 418.456568 24.389178 L 429.646941 24.389178 L 429.646941 28.971792 L 427.783808 29.145376 C 426.649726 29.261099 426.10583 29.920717 426.140547 31.124232 L 427.552362 57.034518 L 431.058757 57.19653 L 431.058757 61.999017 L 417.426637 61.999017 L 417.426637 57.416403 L 419.463354 57.254391 C 420.481713 57.173385 420.97932 56.68735 420.933031 55.773142 L 419.856811 35.822569 L 419.752661 35.822569 L 411.03875 58.388472 L 405.669222 58.388472 L 397.071035 36.042442 L 396.955312 36.042442 L 395.821231 57.034518 L 399.512781 57.19653 L 399.512781 61.999017 L 386.158395 61.999017 L 386.158395 57.416403 L 388.195113 57.254391 C 389.063032 57.173385 389.537495 56.664206 389.606928 55.715281 L 391.134466 29.434683 L 387.697506 29.191665 L 387.697506 24.389178 Z M 399.049891 24.389178 " stroke="#005f5c" stroke-width="5.797072" stroke-opacity="1" stroke-miterlimit="4"/></g><g fill="#000000" fill-opacity="1"><g transform="translate(72.123746, 70.750332)"><g><path d="M 5.515625 0 L 5.765625 -3 L 3.671875 -3 L 3.421875 0 L 2.03125 0 L 2.265625 -3 L 0.34375 -3 L 0.34375 -4.265625 L 2.390625 -4.265625 L 2.65625 -7.234375 L 0.703125 -7.234375 L 0.703125 -8.5 L 2.75 -8.5 L 3.03125 -11.546875 L 4.4375 -11.546875 L 4.140625 -8.5 L 6.25 -8.5 L 6.53125 -11.546875 L 7.921875 -11.546875 L 7.640625 -8.5 L 9.5625 -8.5 L 9.5625 -7.234375 L 7.546875 -7.234375 L 7.28125 -4.265625 L 9.203125 -4.265625 L 9.203125 -3 L 7.15625 -3 L 6.90625 0 Z M 4.046875 -7.234375 L 3.78125 -4.265625 L 5.875 -4.265625 L 6.140625 -7.234375 Z M 4.046875 -7.234375 "/></g></g></g><g fill="#000000" fill-opacity="1"><g transform="translate(82.316516, 70.750332)"><g><path d="M 0.65625 0 L 0.65625 -1.546875 L 1.28125 -1.609375 C 1.644531 -1.640625 1.828125 -1.816406 1.828125 -2.140625 L 1.828125 -11.015625 L 0.75 -11.078125 L 0.75 -12.703125 L 5.96875 -12.703125 C 7.84375 -12.703125 9.304688 -12.203125 10.359375 -11.203125 C 11.410156 -10.210938 11.9375 -8.742188 11.9375 -6.796875 C 11.9375 -5.585938 11.773438 -4.535156 11.453125 -3.640625 C 11.140625 -2.742188 10.707031 -2.039062 10.15625 -1.53125 C 9.0625 -0.507812 7.703125 0 6.078125 0 Z M 4.15625 -10.84375 L 4.15625 -1.828125 L 6.109375 -1.828125 C 7.203125 -1.828125 8.050781 -2.222656 8.65625 -3.015625 C 9.269531 -3.804688 9.578125 -4.953125 9.578125 -6.453125 C 9.578125 -9.378906 8.335938 -10.84375 5.859375 -10.84375 Z M 4.15625 -10.84375 "/></g></g></g><g fill="#000000" fill-opacity="1"><g transform="translate(95.009756, 70.750332)"><g><path d="M 5.421875 -9.890625 C 6.378906 -9.890625 7.132812 -9.65625 7.6875 -9.1875 C 8.25 -8.726562 8.53125 -8.078125 8.53125 -7.234375 C 8.53125 -6.671875 8.410156 -6.175781 8.171875 -5.75 C 7.929688 -5.320312 7.628906 -4.988281 7.265625 -4.75 C 6.910156 -4.507812 6.476562 -4.3125 5.96875 -4.15625 C 5.125 -3.90625 4.164062 -3.78125 3.09375 -3.78125 C 3.132812 -3.101562 3.34375 -2.554688 3.71875 -2.140625 C 4.101562 -1.734375 4.6875 -1.53125 5.46875 -1.53125 C 6.257812 -1.53125 7.050781 -1.8125 7.84375 -2.375 L 8.578125 -0.828125 C 8.316406 -0.597656 7.882812 -0.359375 7.28125 -0.109375 C 6.675781 0.128906 5.988281 0.25 5.21875 0.25 C 3.664062 0.25 2.523438 -0.175781 1.796875 -1.03125 C 1.066406 -1.894531 0.703125 -3.078125 0.703125 -4.578125 C 0.703125 -6.078125 1.113281 -7.335938 1.9375 -8.359375 C 2.769531 -9.378906 3.929688 -9.890625 5.421875 -9.890625 Z M 4.546875 -5.53125 C 5.015625 -5.613281 5.445312 -5.796875 5.84375 -6.078125 C 6.238281 -6.367188 6.4375 -6.710938 6.4375 -7.109375 C 6.4375 -7.878906 6.050781 -8.265625 5.28125 -8.265625 C 4.570312 -8.265625 4.023438 -7.976562 3.640625 -7.40625 C 3.265625 -6.84375 3.054688 -6.171875 3.015625 -5.390625 C 3.578125 -5.398438 4.085938 -5.445312 4.546875 -5.53125 Z M 4.546875 -5.53125 "/></g></g></g><g fill="#000000" fill-opacity="1"><g transform="translate(104.248146, 70.750332)"><g><path d="M 6.59375 -12.921875 C 8.101562 -12.921875 9.367188 -12.382812 10.390625 -11.3125 C 11.410156 -10.25 11.921875 -8.617188 11.921875 -6.421875 C 11.921875 -4.222656 11.410156 -2.5625 10.390625 -1.4375 C 9.378906 -0.3125 8.007812 0.25 6.28125 0.25 C 4.5625 0.25 3.210938 -0.304688 2.234375 -1.421875 C 1.253906 -2.546875 0.765625 -4.175781 0.765625 -6.3125 C 0.765625 -7.488281 0.9375 -8.519531 1.28125 -9.40625 C 1.625 -10.289062 2.078125 -10.972656 2.640625 -11.453125 C 3.765625 -12.429688 5.082031 -12.921875 6.59375 -12.921875 Z M 3.15625 -6.421875 C 3.15625 -3.265625 4.25 -1.6875 6.4375 -1.6875 C 7.601562 -1.6875 8.421875 -2.164062 8.890625 -3.125 C 9.328125 -3.976562 9.546875 -5.023438 9.546875 -6.265625 C 9.546875 -7.367188 9.351562 -8.382812 8.96875 -9.3125 C 8.757812 -9.820312 8.429688 -10.222656 7.984375 -10.515625 C 7.546875 -10.804688 6.976562 -10.953125 6.28125 -10.953125 C 5.582031 -10.953125 4.976562 -10.722656 4.46875 -10.265625 C 3.96875 -9.804688 3.625 -9.253906 3.4375 -8.609375 C 3.25 -7.960938 3.15625 -7.234375 3.15625 -6.421875 Z M 3.15625 -6.421875 "/></g></g></g><g fill="#000000" fill-opacity="1"><g transform="translate(116.922302, 70.750332)"><g><path d="M 4.046875 -13.609375 L 4.046875 -1.578125 L 5.140625 -1.53125 L 5.140625 0 L 0.59375 0 L 0.59375 -1.453125 L 1.21875 -1.515625 C 1.59375 -1.546875 1.78125 -1.75 1.78125 -2.125 L 1.78125 -11.53125 C 1.78125 -11.8125 1.617188 -11.960938 1.296875 -11.984375 L 0.625 -12.03125 L 0.625 -13.609375 Z M 4.046875 -13.609375 "/></g></g></g><g fill="#000000" fill-opacity="1"><g transform="translate(122.610402, 70.750332)"><g><path d="M 1.796875 -2.140625 L 1.796875 -11.4375 C 1.796875 -11.644531 1.757812 -11.785156 1.6875 -11.859375 C 1.613281 -11.929688 1.488281 -11.972656 1.3125 -11.984375 L 0.65625 -12.03125 L 0.65625 -13.609375 L 4.046875 -13.609375 L 4.046875 -8.484375 C 4.710938 -9.421875 5.640625 -9.890625 6.828125 -9.890625 C 7.796875 -9.890625 8.546875 -9.613281 9.078125 -9.0625 C 9.609375 -8.507812 9.875 -7.675781 9.875 -6.5625 L 9.875 -1.578125 L 10.953125 -1.53125 L 10.953125 0 L 6.421875 0 L 6.421875 -1.453125 L 7.046875 -1.515625 C 7.234375 -1.535156 7.367188 -1.585938 7.453125 -1.671875 C 7.546875 -1.753906 7.59375 -1.910156 7.59375 -2.140625 L 7.59375 -6.078125 C 7.59375 -6.734375 7.488281 -7.238281 7.28125 -7.59375 C 7.070312 -7.957031 6.664062 -8.140625 6.0625 -8.140625 C 5.457031 -8.140625 4.972656 -7.945312 4.609375 -7.5625 C 4.242188 -7.1875 4.0625 -6.734375 4.0625 -6.203125 L 4.0625 -1.578125 L 5.15625 -1.53125 L 5.15625 0 L 0.609375 0 L 0.609375 -1.453125 L 1.234375 -1.515625 C 1.429688 -1.535156 1.570312 -1.585938 1.65625 -1.671875 C 1.75 -1.753906 1.796875 -1.910156 1.796875 -2.140625 Z M 1.796875 -2.140625 "/></g></g></g><g fill="#000000" fill-opacity="1"><g transform="translate(134.062953, 70.750332)"><g><path d="M 5.015625 -1.390625 C 6.410156 -1.390625 7.109375 -2.507812 7.109375 -4.75 C 7.109375 -5.882812 6.953125 -6.742188 6.640625 -7.328125 C 6.328125 -7.910156 5.800781 -8.203125 5.0625 -8.203125 C 4.332031 -8.203125 3.796875 -7.921875 3.453125 -7.359375 C 3.109375 -6.804688 2.9375 -6.046875 2.9375 -5.078125 C 2.9375 -3.285156 3.269531 -2.160156 3.9375 -1.703125 C 4.226562 -1.492188 4.585938 -1.390625 5.015625 -1.390625 Z M 0.625 -4.8125 C 0.625 -5.75 0.765625 -6.566406 1.046875 -7.265625 C 1.328125 -7.960938 1.703125 -8.492188 2.171875 -8.859375 C 3.078125 -9.546875 4.078125 -9.890625 5.171875 -9.890625 C 5.929688 -9.890625 6.578125 -9.765625 7.109375 -9.515625 C 7.640625 -9.265625 8.050781 -8.976562 8.34375 -8.65625 C 8.644531 -8.332031 8.898438 -7.859375 9.109375 -7.234375 C 9.328125 -6.617188 9.4375 -5.894531 9.4375 -5.0625 C 9.4375 -3.300781 9.007812 -1.96875 8.15625 -1.0625 C 7.300781 -0.164062 6.207031 0.28125 4.875 0.28125 C 3.550781 0.28125 2.507812 -0.144531 1.75 -1 C 1 -1.863281 0.625 -3.132812 0.625 -4.8125 Z M 0.625 -4.8125 "/></g></g></g><g fill="#000000" fill-opacity="1"><g transform="translate(144.141198, 70.750332)"><g><path d="M 0.609375 0 L 0.609375 -1.546875 L 1.296875 -1.609375 C 1.628906 -1.628906 1.796875 -1.804688 1.796875 -2.140625 L 1.796875 -11.015625 L 0.703125 -11.078125 L 0.703125 -12.703125 L 4.140625 -12.703125 L 9.546875 -3.9375 L 9.578125 -3.9375 L 9.578125 -11.015625 L 8.328125 -11.078125 L 8.328125 -12.703125 L 12.984375 -12.703125 L 12.984375 -11.15625 L 12.296875 -11.09375 C 11.992188 -11.070312 11.84375 -10.875 11.84375 -10.5 L 11.84375 0 L 9.609375 0 L 4.09375 -8.890625 L 4.046875 -8.890625 L 4.046875 -1.6875 L 5.28125 -1.625 L 5.28125 0 Z M 0.609375 0 "/></g></g></g><g fill="#000000" fill-opacity="1"><g transform="translate(157.597944, 70.750332)"><g><path d="M 5.015625 -1.390625 C 6.410156 -1.390625 7.109375 -2.507812 7.109375 -4.75 C 7.109375 -5.882812 6.953125 -6.742188 6.640625 -7.328125 C 6.328125 -7.910156 5.800781 -8.203125 5.0625 -8.203125 C 4.332031 -8.203125 3.796875 -7.921875 3.453125 -7.359375 C 3.109375 -6.804688 2.9375 -6.046875 2.9375 -5.078125 C 2.9375 -3.285156 3.269531 -2.160156 3.9375 -1.703125 C 4.226562 -1.492188 4.585938 -1.390625 5.015625 -1.390625 Z M 0.625 -4.8125 C 0.625 -5.75 0.765625 -6.566406 1.046875 -7.265625 C 1.328125 -7.960938 1.703125 -8.492188 2.171875 -8.859375 C 3.078125 -9.546875 4.078125 -9.890625 5.171875 -9.890625 C 5.929688 -9.890625 6.578125 -9.765625 7.109375 -9.515625 C 7.640625 -9.265625 8.050781 -8.976562 8.34375 -8.65625 C 8.644531 -8.332031 8.898438 -7.859375 9.109375 -7.234375 C 9.328125 -6.617188 9.4375 -5.894531 9.4375 -5.0625 C 9.4375 -3.300781 9.007812 -1.96875 8.15625 -1.0625 C 7.300781 -0.164062 6.207031 0.28125 4.875 0.28125 C 3.550781 0.28125 2.507812 -0.144531 1.75 -1 C 1 -1.863281 0.625 -3.132812 0.625 -4.8125 Z M 0.625 -4.8125 "/></g></g></g><g fill="#000000" fill-opacity="1"><g transform="translate(167.676184, 70.750332)"><g><path d="M 9.71875 0 L 0.65625 0 L 0.65625 -1.546875 L 1.28125 -1.609375 C 1.644531 -1.640625 1.828125 -1.816406 1.828125 -2.140625 L 1.828125 -11.015625 L 0.75 -11.078125 L 0.75 -12.703125 L 9.484375 -12.703125 L 9.484375 -9.53125 L 7.546875 -9.390625 L 7.546875 -10.15625 C 7.546875 -10.375 7.507812 -10.523438 7.4375 -10.609375 C 7.375 -10.703125 7.222656 -10.75 6.984375 -10.75 L 4.15625 -10.75 L 4.15625 -7.484375 L 8.578125 -7.484375 L 8.578125 -5.53125 L 4.15625 -5.53125 L 4.15625 -1.96875 L 7.234375 -1.96875 C 7.460938 -1.96875 7.609375 -2.015625 7.671875 -2.109375 C 7.734375 -2.203125 7.765625 -2.359375 7.765625 -2.578125 L 7.765625 -3.53125 L 9.71875 -3.40625 Z M 9.71875 0 "/></g></g></g><g fill="#000000" fill-opacity="1"><g transform="translate(178.155263, 70.750332)"><g><path d="M 0.609375 0 L 0.609375 -1.546875 L 1.296875 -1.609375 C 1.628906 -1.628906 1.796875 -1.804688 1.796875 -2.140625 L 1.796875 -11.015625 L 0.703125 -11.078125 L 0.703125 -12.703125 L 4.140625 -12.703125 L 9.546875 -3.9375 L 9.578125 -3.9375 L 9.578125 -11.015625 L 8.328125 -11.078125 L 8.328125 -12.703125 L 12.984375 -12.703125 L 12.984375 -11.15625 L 12.296875 -11.09375 C 11.992188 -11.070312 11.84375 -10.875 11.84375 -10.5 L 11.84375 0 L 9.609375 0 L 4.09375 -8.890625 L 4.046875 -8.890625 L 4.046875 -1.6875 L 5.28125 -1.625 L 5.28125 0 Z M 0.609375 0 "/></g></g></g><g fill="#000000" fill-opacity="1"><g transform="translate(191.612014, 70.750332)"><g><path d="M 9.71875 0 L 0.65625 0 L 0.65625 -1.546875 L 1.28125 -1.609375 C 1.644531 -1.640625 1.828125 -1.816406 1.828125 -2.140625 L 1.828125 -11.015625 L 0.75 -11.078125 L 0.75 -12.703125 L 9.484375 -12.703125 L 9.484375 -9.53125 L 7.546875 -9.390625 L 7.546875 -10.15625 C 7.546875 -10.375 7.507812 -10.523438 7.4375 -10.609375 C 7.375 -10.703125 7.222656 -10.75 6.984375 -10.75 L 4.15625 -10.75 L 4.15625 -7.484375 L 8.578125 -7.484375 L 8.578125 -5.53125 L 4.15625 -5.53125 L 4.15625 -1.96875 L 7.234375 -1.96875 C 7.460938 -1.96875 7.609375 -2.015625 7.671875 -2.109375 C 7.734375 -2.203125 7.765625 -2.359375 7.765625 -2.578125 L 7.765625 -3.53125 L 9.71875 -3.40625 Z M 9.71875 0 "/></g></g></g><g fill="#000000" fill-opacity="1"><g transform="translate(202.091093, 70.750332)"><g><path d="M 4.734375 -12.703125 L 7.984375 -4.0625 L 8.015625 -4.0625 L 11.28125 -12.703125 L 15.0625 -12.703125 L 15.0625 -11.15625 L 14.4375 -11.09375 C 14.050781 -11.050781 13.863281 -10.828125 13.875 -10.421875 L 14.359375 -1.6875 L 15.546875 -1.625 L 15.546875 0 L 10.9375 0 L 10.9375 -1.546875 L 11.625 -1.609375 C 11.96875 -1.628906 12.132812 -1.789062 12.125 -2.09375 L 11.765625 -8.84375 L 11.71875 -8.84375 L 8.78125 -1.21875 L 6.96875 -1.21875 L 4.0625 -8.765625 L 4.03125 -8.765625 L 3.640625 -1.6875 L 4.890625 -1.625 L 4.890625 0 L 0.375 0 L 0.375 -1.546875 L 1.0625 -1.609375 C 1.363281 -1.628906 1.523438 -1.800781 1.546875 -2.125 L 2.0625 -11 L 0.890625 -11.078125 L 0.890625 -12.703125 Z M 4.734375 -12.703125 "/></g></g></g></svg>